<?xml version="1.0" standalone="no"?>
<!DOCTYPE svg PUBLIC "-//W3C//DTD SVG 20010904//EN"
 "http://www.w3.org/TR/2001/REC-SVG-20010904/DTD/svg10.dtd">
<svg version="1.0" xmlns="http://www.w3.org/2000/svg"
 width="1072.000000pt" height="1072.000000pt" viewBox="0 0 1072.000000 1072.000000"
 preserveAspectRatio="xMidYMid meet">
<metadata>
Created by potrace 1.14, written by Peter Selinger 2001-2017
</metadata>
<g transform="translate(0.000000,1072.000000) scale(0.100000,-0.100000)"
fill="#000000" stroke="none">
<path d="M5629 10668 c-1 -43 -4 -85 -13 -188 -5 -48 -8 -74 -21 -165 -12 -81
-18 -119 -30 -180 -8 -38 -16 -82 -19 -96 -11 -68 -64 -257 -103 -369 -24 -69
-45 -129 -46 -135 -2 -5 -12 -30 -23 -55 -10 -25 -18 -48 -16 -52 1 -5 -3 -8
-8 -8 -6 0 -10 -9 -10 -20 0 -11 -4 -20 -10 -20 -5 0 -9 -3 -8 -7 1 -5 -11
-35 -26 -68 -15 -33 -27 -62 -26 -64 1 -2 -2 -7 -7 -10 -10 -7 -49 -74 -68
-117 -8 -17 -21 -36 -29 -44 -9 -7 -16 -18 -16 -26 0 -7 -6 -19 -13 -26 -6 -7
-33 -44 -59 -83 -53 -80 -57 -84 -178 -235 -55 -68 -127 -144 -240 -254 -159
-155 -166 -162 -285 -261 -33 -27 -62 -52 -65 -55 -3 -4 -104 -84 -225 -179
-121 -95 -229 -180 -240 -189 -11 -10 -54 -44 -95 -77 -89 -71 -108 -87 -124
-100 -6 -5 -45 -39 -86 -75 -77 -66 -291 -278 -345 -340 -174 -203 -326 -453
-395 -650 -13 -36 -28 -71 -33 -77 -5 -7 -6 -13 -3 -13 4 0 2 -8 -3 -19 -12
-21 -68 -240 -75 -291 -3 -19 -8 -48 -11 -65 -24 -134 -30 -231 -30 -475 0
-129 4 -273 9 -320 4 -47 10 -101 11 -120 2 -19 6 -51 9 -70 3 -19 8 -55 11
-80 4 -25 9 -56 11 -70 3 -14 7 -38 9 -55 3 -16 7 -46 11 -65 3 -19 7 -44 9
-55 2 -11 8 -41 14 -68 6 -26 14 -64 17 -85 3 -20 8 -40 10 -43 2 -3 6 -21 9
-40 7 -42 73 -308 82 -329 3 -8 7 -22 8 -30 5 -37 92 -325 105 -350 6 -11 8
-20 6 -20 -3 0 34 -116 83 -257 126 -366 199 -558 201 -533 11 133 35 302 56
390 3 14 7 34 9 45 16 90 99 338 154 458 16 37 30 70 30 72 2 20 110 217 198
360 7 11 18 30 24 42 7 13 16 23 21 23 4 0 8 5 8 10 0 6 5 16 10 23 6 7 47 62
92 122 44 61 84 112 87 115 4 3 16 17 27 32 97 126 335 375 565 590 121 113
124 117 238 218 41 36 79 70 85 76 17 15 114 102 190 169 38 33 78 69 90 80
12 11 62 56 111 100 100 90 137 125 291 276 147 143 256 258 345 365 41 49 77
91 82 92 4 2 7 10 7 18 0 8 3 14 8 14 11 0 89 108 204 284 22 32 107 188 127
231 58 124 105 241 100 247 -1 2 4 14 11 28 11 20 30 80 44 140 24 98 38 160
42 185 2 17 6 41 9 54 13 65 20 194 20 361 0 191 -6 271 -31 425 -21 136 -23
143 -45 235 -21 86 -26 105 -33 138 -7 32 -67 227 -76 247 -5 11 -16 40 -24
65 -8 25 -19 56 -24 70 -5 14 -22 57 -37 95 -15 39 -38 94 -51 123 -13 29 -24
56 -24 61 0 5 -9 26 -19 48 -11 21 -61 121 -110 223 -50 102 -108 217 -129
255 -56 103 -90 163 -106 188 -8 12 -27 45 -43 73 -64 116 -148 253 -155 254
-5 0 -8 -19 -9 -42z"/>
<path d="M7099 7735 c-1 -11 -2 -31 -4 -45 -1 -14 -5 -61 -9 -105 -11 -130
-30 -280 -42 -336 -2 -13 -7 -38 -9 -55 -24 -167 -159 -634 -190 -656 -5 -4
-7 -8 -3 -8 16 0 -124 -288 -202 -415 -20 -33 -43 -71 -51 -85 -8 -14 -17 -27
-20 -30 -3 -3 -21 -27 -39 -55 -19 -27 -38 -54 -42 -60 -21 -26 -122 -154
-146 -183 -42 -53 -320 -331 -392 -393 -110 -95 -215 -183 -244 -204 -16 -11
-36 -27 -45 -36 -9 -8 -68 -55 -131 -104 -63 -49 -117 -92 -120 -95 -3 -3 -45
-37 -95 -75 -271 -211 -490 -409 -635 -575 -36 -41 -67 -77 -70 -80 -16 -15
-134 -178 -143 -197 -6 -13 -14 -23 -19 -23 -4 0 -8 -5 -8 -11 0 -6 -9 -24
-20 -39 -19 -26 -130 -243 -130 -253 0 -3 -7 -21 -15 -41 -8 -20 -14 -37 -13
-38 1 -2 -4 -13 -11 -26 -12 -22 -57 -163 -66 -205 -2 -10 -6 -26 -9 -35 -3
-9 -8 -30 -11 -47 -3 -16 -8 -41 -11 -55 -12 -60 -15 -78 -20 -120 -2 -25 -7
-56 -9 -70 -10 -53 -19 -222 -19 -370 0 -135 4 -209 19 -395 4 -56 27 -229 39
-295 3 -14 7 -41 10 -60 3 -19 8 -46 11 -60 3 -14 8 -41 11 -60 3 -19 9 -51
14 -70 5 -19 12 -48 15 -65 3 -16 8 -40 10 -53 3 -12 7 -32 9 -45 14 -72 102
-398 153 -567 80 -269 301 -899 324 -924 4 -5 8 0 7 10 -1 24 11 152 18 184 2
14 6 39 8 55 2 17 6 44 10 60 3 17 8 44 11 60 7 43 65 263 78 295 3 8 17 47
31 85 79 222 195 446 344 665 56 81 146 204 162 220 3 3 23 28 45 55 40 51 63
77 145 169 85 96 395 403 520 516 119 107 259 233 284 255 107 95 186 165 207
185 15 14 44 40 65 59 174 151 546 515 634 620 25 30 59 69 75 87 17 19 39 46
50 60 11 14 25 31 30 37 67 77 275 391 275 416 0 6 5 11 10 11 6 0 10 8 10 18
0 9 9 28 20 42 11 14 20 28 20 32 0 3 15 39 33 80 51 112 64 146 92 234 92
290 123 567 102 894 -4 58 -9 116 -11 130 -2 14 -7 45 -10 70 -5 41 -40 228
-51 275 -3 11 -7 29 -9 40 -22 97 -128 443 -144 470 -4 6 -7 15 -8 20 -2 10
-76 193 -109 270 -75 176 -262 546 -332 657 -13 21 -23 40 -23 43 0 3 -41 74
-92 157 -50 84 -98 164 -105 178 -11 22 -13 23 -14 5z"/>
</g>
</svg>
