<svg width="24" height="24" viewBox="0 0 24 24" fill="none" xmlns="http://www.w3.org/2000/svg">
<path fill-rule="evenodd" clip-rule="evenodd" d="M13.498 6.28876C13.8082 5.97862 14.311 5.97861 14.6212 6.28876L19.7708 11.4384C19.9198 11.5873 20.0034 11.7893 20.0034 12C20.0034 12.2106 19.9198 12.4126 19.7708 12.5615L14.6212 17.7112C14.311 18.0213 13.8082 18.0213 13.498 17.7112C13.1879 17.401 13.1879 16.8982 13.498 16.588L17.2919 12.7942H4.79028C4.35166 12.7942 3.99609 12.4386 3.99609 12C3.99609 11.5613 4.35166 11.2058 4.79028 11.2058H17.2919L13.498 7.41191C13.1879 7.10177 13.1879 6.59891 13.498 6.28876Z" fill="#011F3A"/>
</svg>
