<svg width="14" height="14" viewBox="0 0 14 14" fill="none" xmlns="http://www.w3.org/2000/svg">
<path d="M12.6897 6.05499L11.6135 10.8106C11.5921 10.9101 11.5368 10.9991 11.4569 11.0621C11.3771 11.1252 11.2777 11.1585 11.176 11.1562H2.79348C2.69174 11.1585 2.5924 11.1252 2.51255 11.0621C2.43269 10.9991 2.37733 10.9101 2.35598 10.8106L1.31473 6.05499C1.29721 5.97463 1.30269 5.89096 1.33055 5.81358C1.35841 5.7362 1.40751 5.66824 1.47223 5.61749C1.53713 5.56656 1.61511 5.53502 1.69716 5.5265C1.77922 5.51799 1.86201 5.53285 1.93598 5.56936L4.49098 6.80749L6.60848 3.06249C6.64664 2.99516 6.70198 2.93915 6.76884 2.90019C6.83571 2.86123 6.91172 2.8407 6.98911 2.8407C7.0665 2.8407 7.14251 2.86123 7.20937 2.90019C7.27624 2.93915 7.33158 2.99516 7.36973 3.06249L9.48723 6.81186L12.0597 5.56499C12.1342 5.5255 12.2186 5.50837 12.3026 5.51568C12.3866 5.52299 12.4667 5.55443 12.5332 5.60619C12.5998 5.65796 12.65 5.72787 12.6777 5.80749C12.7055 5.88711 12.7097 5.97306 12.6897 6.05499Z" fill="white"/>
</svg>
