<svg width="24" height="24" viewBox="0 0 24 24" fill="none" xmlns="http://www.w3.org/2000/svg">
<path fill-rule="evenodd" clip-rule="evenodd" d="M1.63281 2.70986C1.63281 2.24042 2.01337 1.85986 2.48281 1.85986H4.48269C4.88275 1.85986 5.22866 2.13883 5.31341 2.52982L5.92247 5.33993H19.8834C21.1919 5.33993 22.1506 6.56873 21.8333 7.838L20.2696 14.0928C19.9448 15.3904 18.8416 16.3451 17.51 16.4783L9.60324 17.2694C7.99405 17.4294 6.52079 16.354 6.18605 14.7716L4.40625 6.36998L3.79719 3.55986H2.48281C2.01337 3.55986 1.63281 3.17931 1.63281 2.70986ZM6.28589 7.03994L7.84914 14.4193C8.00408 15.1521 8.68666 15.6522 9.43453 15.5778L17.3407 14.7868C17.9579 14.725 18.4695 14.2829 18.6204 13.6803L20.184 7.42569C20.2333 7.22869 20.0853 7.03994 19.8834 7.03994H6.28589ZM7.24 20.844C7.23754 20.136 7.8129 19.5694 8.51227 19.5694C9.2172 19.5694 9.788 20.1402 9.788 20.8451C9.788 21.5489 9.2172 22.1197 8.51343 22.1197C7.81556 22.1197 7.23757 21.5547 7.24 20.844ZM16.9992 20.8487C16.9945 20.1387 17.5707 19.57 18.2714 19.57C18.9757 19.57 19.5449 20.1392 19.5483 20.8404L19.5483 20.8446C19.5483 21.5483 18.9775 22.1191 18.2738 22.1191C17.5714 22.1191 17.0014 21.5506 16.9992 20.8487Z" fill="#011F3A"/>
</svg>
