<svg width="20" height="20" viewBox="0 0 20 20" fill="none" xmlns="http://www.w3.org/2000/svg">
<path d="M9.9974 3.95817V6.0415M11.0391 4.99984H8.95573M2.4974 6.6665V17.4998M2.4974 6.6665L7.11121 6.66651M2.4974 6.6665C2.03716 6.6665 1.66406 6.29342 1.66406 5.83318V4.99985C1.66406 4.53961 2.03716 4.16651 2.4974 4.16651H6.77048M17.4974 17.4998V6.6665M17.4974 6.6665C17.9576 6.6665 18.3307 6.29342 18.3307 5.83318V4.99985C18.3307 4.53961 17.9576 4.16651 17.4974 4.16651H13.2245M17.4974 6.6665L12.8843 6.66651M18.3307 17.4998H1.66406M9.9974 11.6665V17.4998M13.3307 4.99984C13.3307 6.84079 11.8383 8.33317 9.9974 8.33317C8.15645 8.33317 6.66406 6.84079 6.66406 4.99984C6.66406 3.15889 8.15645 1.6665 9.9974 1.6665C11.8383 1.6665 13.3307 3.15889 13.3307 4.99984ZM7.4974 11.6665H12.4974C12.9576 11.6665 13.3307 12.0396 13.3307 12.4998V17.4998H6.66406V12.4998C6.66406 12.0396 7.03716 11.6665 7.4974 11.6665Z" stroke="#011F3A" stroke-linecap="round" stroke-linejoin="round"/>
</svg>
