<svg width="20" height="20" viewBox="0 0 20 20" fill="none" xmlns="http://www.w3.org/2000/svg">
<path d="M11.2611 8.67252V2.29819C13.8451 2.27149 16.1896 3.80751 17.197 6.18719C18.2044 8.56687 17.6754 11.3193 15.8577 13.156C14.0399 14.9928 11.2931 15.5503 8.90309 14.5677C6.51308 13.585 4.9528 11.2567 4.95266 8.67252V6.14896C4.95266 5.48917 4.41779 4.9543 3.758 4.9543V4.9543C3.44101 4.95408 3.13693 5.07985 2.9127 5.30391C2.68848 5.52798 2.5625 5.83198 2.5625 6.14896V6.54746" stroke="white" stroke-linecap="round" stroke-linejoin="round"/>
<path d="M5.61719 8.6727H17.5688" stroke="white" stroke-linecap="round" stroke-linejoin="round"/>
<path d="M15.0441 17.1493C14.9292 17.1503 14.8367 17.244 14.8373 17.3589C14.8379 17.4738 14.9314 17.5665 15.0463 17.5662C15.1612 17.5659 15.2542 17.4727 15.2542 17.3578C15.2539 17.3023 15.2317 17.2491 15.1923 17.21C15.1529 17.171 15.0996 17.1491 15.0441 17.1493" stroke="white" stroke-linecap="round" stroke-linejoin="round"/>
<path d="M7.47655 17.1513C7.36155 17.1518 7.26866 17.2453 7.26897 17.3603C7.26927 17.4753 7.36266 17.5683 7.47766 17.5681C7.59266 17.568 7.68581 17.4747 7.68581 17.3597C7.68603 17.3042 7.66403 17.251 7.62471 17.2118C7.5854 17.1726 7.53204 17.1508 7.47655 17.1513" stroke="white" stroke-linecap="round" stroke-linejoin="round"/>
</svg>
