<svg width="20" height="20" viewBox="0 0 20 20" fill="none" xmlns="http://www.w3.org/2000/svg">
<path d="M7.5 16.6667V12.5C7.5 12.0398 7.8731 11.6667 8.33333 11.6667H10M2.5 8.81689L8.91533 3.31792C9.53949 2.78291 10.4605 2.78291 11.0847 3.31792L17.5 8.81689M3.57125 7.89866V16.6667M10 16.6667H2.5M13.0197 4.97652V3.125C13.0197 2.77982 13.2995 2.5 13.6447 2.5H15.8038C16.1489 2.5 16.4288 2.77982 16.4288 3.125V7.89866M14.8116 12.6312L15 12.8226L15.1884 12.6312C15.5313 12.2808 16.0009 12.0833 16.4911 12.0833C16.9813 12.0833 17.4509 12.2808 17.7937 12.6312C18.5132 13.3663 18.5132 14.5416 17.7937 15.2766L16.0312 17.0663C15.7598 17.3437 15.3881 17.5 15 17.5C14.6119 17.5 14.2402 17.3437 13.9688 17.0663L12.2063 15.2767C11.4868 14.5416 11.4868 13.3663 12.2063 12.6312C12.5491 12.2809 13.0187 12.0834 13.5089 12.0834C13.9991 12.0834 14.4687 12.2808 14.8116 12.6312Z" stroke="url(#paint0_linear_1272_178772)" stroke-width="1.2" stroke-linecap="round" stroke-linejoin="round"/>
<path d="M7.5 16.6667V12.5C7.5 12.0398 7.8731 11.6667 8.33333 11.6667H10M2.5 8.81689L8.91533 3.31792C9.53949 2.78291 10.4605 2.78291 11.0847 3.31792L17.5 8.81689M3.57125 7.89866V16.6667M10 16.6667H2.5M13.0197 4.97652V3.125C13.0197 2.77982 13.2995 2.5 13.6447 2.5H15.8038C16.1489 2.5 16.4288 2.77982 16.4288 3.125V7.89866M14.8116 12.6312L15 12.8226L15.1884 12.6312C15.5313 12.2808 16.0009 12.0833 16.4911 12.0833C16.9813 12.0833 17.4509 12.2808 17.7937 12.6312C18.5132 13.3663 18.5132 14.5416 17.7937 15.2766L16.0312 17.0663C15.7598 17.3437 15.3881 17.5 15 17.5C14.6119 17.5 14.2402 17.3437 13.9688 17.0663L12.2063 15.2767C11.4868 14.5416 11.4868 13.3663 12.2063 12.6312C12.5491 12.2809 13.0187 12.0834 13.5089 12.0834C13.9991 12.0834 14.4687 12.2808 14.8116 12.6312Z" stroke="#011F3A" stroke-opacity="0.15" stroke-width="1.2" stroke-linecap="round" stroke-linejoin="round"/>
<defs>
<linearGradient id="paint0_linear_1272_178772" x1="28.6625" y1="27.135" x2="1.68219" y2="-1.54609" gradientUnits="userSpaceOnUse">
<stop offset="0.050699" stop-color="#14D7F2"/>
<stop offset="0.553872" stop-color="#1CD5A8"/>
<stop offset="1" stop-color="#22D26D"/>
</linearGradient>
</defs>
</svg>
