<svg width="20" height="20" viewBox="0 0 20 20" fill="none" xmlns="http://www.w3.org/2000/svg">
<path d="M11.3348 2.49707V6.332C11.3348 7.43663 12.231 8.33283 13.3356 8.33283M8.66698 2.49707V6.332C8.66698 7.43663 7.77077 8.33283 6.66615 8.33283M13.3356 10.8339C12.0067 10.8339 10.8245 10.2478 10.0009 9.33158C9.17719 10.2478 7.99503 10.8339 6.66615 10.8339M11.2514 13.3316V14.4721C11.2514 15.4191 11.7866 16.2845 12.6336 16.708L13.5115 17.1465C15.7291 18.2553 18.3377 16.6438 18.3377 14.1653V9.0423C18.3377 8.28531 18.0801 7.55084 17.6065 6.95976L16.1217 5.10482C15.3814 4.1786 14.2651 3.98352 13.3356 4.31533M8.75035 13.3316V14.4721C8.75035 15.4191 8.21513 16.2845 7.36811 16.708L6.49024 17.1465C4.27265 18.2553 1.66406 16.6438 1.66406 14.1653V9.0423C1.66406 8.28531 1.92167 7.55084 2.3952 6.95976L3.87999 5.10482C4.62029 4.1786 5.73659 3.98352 6.66615 4.31533" stroke="#011F3A" stroke-linecap="round" stroke-linejoin="round"/>
</svg>
