<svg width="20" height="20" viewBox="0 0 20 20" fill="none" xmlns="http://www.w3.org/2000/svg">
<path d="M13.2406 9.9916C13.0078 10.2949 12.65 10.4761 12.2677 10.4843C11.8863 10.4738 11.5296 10.2931 11.2957 9.9916M8.70124 9.9916C8.46863 10.2947 8.11112 10.4759 7.72917 10.4843C7.34747 10.474 6.99047 10.2932 6.75627 9.9916M11.8509 13.4547C10.7895 14.3807 9.2074 14.3807 8.14601 13.4547M11.5224 3.95409L12.8755 2.69356C13.2519 2.3423 13.7641 2.17509 14.2753 2.23666C14.7864 2.29822 15.2444 2.58227 15.5266 3.01286L15.655 3.20711C15.9723 3.68927 16.1413 4.2539 16.141 4.83112C16.1412 5.40807 15.9722 5.97242 15.655 6.4543L15.5258 6.64854C15.244 7.07946 14.7863 7.36388 14.2751 7.42563C13.764 7.48737 13.2517 7.32012 12.8755 6.96868L11.5224 5.70732M8.47448 5.70648L7.12142 6.96701C6.74502 7.31827 6.23276 7.48548 5.72161 7.42391C5.21046 7.36235 4.75255 7.0783 4.47031 6.64771L4.34193 6.45346C4.02481 5.97182 3.85583 5.40779 3.85589 4.83112C3.85576 4.25418 4.02474 3.68986 4.34193 3.20794L4.47115 3.0137C4.75307 2.58302 5.21078 2.2988 5.72181 2.23707C6.23284 2.17534 6.74505 2.3424 7.12142 2.69356L8.47448 3.95409M15.4841 6.69856C16.0421 7.41722 16.4531 8.23874 16.6937 9.11624C17.6269 9.21985 18.3328 10.0086 18.3328 10.9474C18.3328 11.8863 17.6269 12.675 16.6937 12.7786C15.8701 15.798 13.1282 17.8932 9.99845 17.8949C6.86869 17.8932 4.12684 15.798 3.30316 12.7786C2.37004 12.675 1.66406 11.8863 1.66406 10.9474C1.66406 10.0086 2.37004 9.21985 3.30316 9.11624C3.54375 8.23874 3.95479 7.41722 4.51283 6.69856M11.7533 4.83029C11.7533 5.80916 10.9677 6.60269 9.99845 6.60269C9.02925 6.60269 8.24355 5.80916 8.24355 4.83029C8.24355 3.85141 9.02925 3.05788 9.99845 3.05788C10.9677 3.05788 11.7533 3.85141 11.7533 4.83029Z" stroke="#011F3A" stroke-linecap="round" stroke-linejoin="round"/>
</svg>
