<svg width="20" height="20" viewBox="0 0 20 20" fill="none" xmlns="http://www.w3.org/2000/svg">
<path d="M8.25773 6.11905H9.99929L11.3565 5.29204C11.5733 5.15996 11.8385 5.13387 12.0769 5.22118C12.3153 5.3085 12.501 5.49968 12.5812 5.74056L14.5012 11.5005L17.2023 15.102C17.5433 15.5567 17.5982 16.165 17.344 16.6734C17.0898 17.1818 16.5702 17.503 16.0018 17.503H12.7254C11.7989 17.5035 10.9141 17.1181 10.2836 16.4392L3.16311 8.77516C2.70069 8.27641 2.46133 7.61086 2.50018 6.93184C2.53903 6.25282 2.85274 5.6189 3.36903 5.17616L6.22272 2.73097C6.50923 2.48554 6.91238 2.42931 7.25512 2.58697C7.59785 2.74463 7.81748 3.08735 7.81755 3.46461V6.11905H9.99929" stroke="white" stroke-linecap="round" stroke-linejoin="round"/>
<path d="M2.49609 14.5853H4.16345" stroke="white" stroke-linecap="round" stroke-linejoin="round"/>
<path d="M6.6645 17.5033H2.49609" stroke="white" stroke-linecap="round" stroke-linejoin="round"/>
<path d="M17.1255 15.0021H12.9371C12.2431 15.004 11.5799 14.7156 11.108 14.2068L3.04297 5.52148" stroke="white" stroke-linecap="round" stroke-linejoin="round"/>
<path d="M10.834 10.8339L14.0895 10.2703" stroke="white" stroke-linecap="round" stroke-linejoin="round"/>
<path d="M10 8.74943L13.3881 8.16335" stroke="white" stroke-linecap="round" stroke-linejoin="round"/>
</svg>
