<svg width="20" height="20" viewBox="0 0 20 20" fill="none" xmlns="http://www.w3.org/2000/svg">
<path d="M8.33203 10.011C9.25286 8.90013 10.7445 8.90013 11.6654 10.011" stroke="white" stroke-linecap="round" stroke-linejoin="round"/>
<path d="M7.35832 7.6433C8.66007 8.94505 8.66007 11.0556 7.35832 12.3573C6.05657 13.6591 3.94602 13.6591 2.64428 12.3573C1.34253 11.0556 1.34253 8.94505 2.64428 7.6433C3.94603 6.34155 6.05658 6.34155 7.35832 7.6433" stroke="white" stroke-linecap="round" stroke-linejoin="round"/>
<path d="M17.3583 7.6433C18.6601 8.94505 18.6601 11.0556 17.3583 12.3573C16.0566 13.6591 13.946 13.6591 12.6443 12.3573C11.3425 11.0556 11.3425 8.94505 12.6443 7.6433C13.946 6.34155 16.0566 6.34155 17.3583 7.6433" stroke="white" stroke-linecap="round" stroke-linejoin="round"/>
<path d="M1.66536 9.99967H0.832031" stroke="white" stroke-linecap="round" stroke-linejoin="round"/>
<path d="M19.1654 9.99967H18.332" stroke="white" stroke-linecap="round" stroke-linejoin="round"/>
</svg>
