<svg width="20" height="20" viewBox="0 0 20 20" fill="none" xmlns="http://www.w3.org/2000/svg">
<path d="M10.0523 9.67089C8.35949 9.95409 6.8676 10.9453 5.9506 12.3962M9.68716 6.9731C8.01534 6.9731 6.66007 8.32838 6.66007 10.0002C6.66007 11.672 8.01534 13.0273 9.68716 13.0273C12.1532 13.0273 12.7584 9.99936 14.1715 9.19236C13.118 7.77763 11.451 6.95263 9.68716 6.9731ZM17.5062 10.0002C17.5062 14.1441 14.147 17.5033 10.0031 17.5033C5.85926 17.5033 2.5 14.1441 2.5 10.0002C2.5 5.85633 5.85926 2.49707 10.0031 2.49707C14.147 2.49707 17.5062 5.85633 17.5062 10.0002Z" stroke="#011F3A" stroke-linecap="round" stroke-linejoin="round"/>
</svg>
