<svg width="20" height="20" viewBox="0 0 20 20" fill="none" xmlns="http://www.w3.org/2000/svg">
<path d="M16.1283 14.4412L14.7243 15.8493L13.8807 15.0023M6.93778 9.55918H5.17204M14.0482 9.55918H12.2825M14.9311 6.91058L16.696 6.02771M4.28917 6.91058L2.52344 6.02771M4.2675 7.06231L5.01781 3.86097C5.20482 3.06211 5.91723 2.49716 6.73769 2.49707H12.4826C13.3029 2.49693 14.0152 3.06207 14.2016 3.86097L14.9519 7.06231M16.696 10.0002V9.34159C16.696 8.03849 15.6406 6.98161 14.3375 6.97977H4.88609C4.25955 6.97955 3.6586 7.22829 3.21549 7.67124C2.77239 8.11419 2.52344 8.71505 2.52344 9.34159V13.3349C2.52344 13.7953 2.89669 14.1686 3.35712 14.1686H5.22123C5.68166 14.1686 6.05491 13.7953 6.05491 13.3349V12.2069H10.0024M15.0045 11.6676C16.8462 11.6676 18.3392 13.1606 18.3392 15.0023C18.3392 16.844 16.8462 18.337 15.0045 18.337C13.1628 18.337 11.6697 16.844 11.6697 15.0023C11.6697 13.1606 13.1628 11.6676 15.0045 11.6676Z" stroke="#011F3A" stroke-linecap="round" stroke-linejoin="round"/>
</svg>
