<svg width="20" height="20" viewBox="0 0 20 20" fill="none" xmlns="http://www.w3.org/2000/svg">
<path d="M11.7547 9.50385L12.3741 11.9815M8.25323 9.50385L7.6338 11.9815M6.6684 11.7978V15.002M6.6684 15.002C5.97776 15.002 5.41788 15.5619 5.41788 16.2525C5.41788 16.9431 5.97776 17.503 6.6684 17.503C7.35905 17.503 7.91892 16.9431 7.91892 16.2525C7.91892 15.5619 7.35905 15.002 6.6684 15.002ZM13.3378 11.7978V15.002M13.3378 15.002C12.417 15.002 11.6705 15.7485 11.6705 16.6693C11.6726 16.9628 11.7525 17.2504 11.9019 17.503M13.3378 15.002C14.2587 15.002 15.0052 15.7485 15.0052 16.6693C15.0031 16.9628 14.9232 17.2504 14.7738 17.503M13.3378 4.99781H6.6684M2.5 15.8357V14.6817C2.5 13.4894 3.34158 12.4629 4.51071 12.2292L6.88349 11.7548C7.07953 11.7156 7.28313 11.7557 7.44956 11.8665C8.99575 12.8978 11.0105 12.8978 12.5567 11.8665C12.7231 11.7557 12.9267 11.7156 13.1228 11.7548L15.4955 12.2292C16.6647 12.4629 17.5062 13.4894 17.5062 14.6817V15.8357M8.33576 1.66309H11.6705C12.5913 1.66309 13.3378 2.40959 13.3378 3.33045V6.66517C13.3378 8.50689 11.8448 9.99989 10.0031 9.99989C8.16141 9.99989 6.6684 8.50689 6.6684 6.66517V3.33045C6.6684 2.40959 7.41491 1.66309 8.33576 1.66309Z" stroke="#011F3A" stroke-linecap="round" stroke-linejoin="round"/>
</svg>
