<svg width="20" height="20" viewBox="0 0 20 20" fill="none" xmlns="http://www.w3.org/2000/svg">
<path d="M6.66667 14.1643H4.58333C3.43274 14.1643 2.5 13.2315 2.5 12.0809V5.00049" stroke="white" stroke-linecap="round" stroke-linejoin="round"/>
<path d="M12.5 7.5V3.33333C12.5 2.8731 12.1269 2.5 11.6667 2.5H5.00067C4.33745 2.5 3.70139 2.76347 3.23242 3.23244C2.76346 3.70141 2.5 4.33746 2.5 5.00068V5.00068C2.5 6.38176 3.61959 7.50135 5.00067 7.50135H15.4173C15.9697 7.50134 16.4994 7.72076 16.89 8.11133C17.2806 8.5019 17.5 9.03164 17.5 9.58399V9.58399C17.501 10.1359 17.2826 10.6655 16.8927 11.0562C16.5029 11.4469 15.9737 11.6665 15.4218 11.6667H7.49635C7.27571 11.6668 7.0642 11.7548 6.90852 11.9111C6.75284 12.0675 6.6658 12.2794 6.66662 12.5L6.66667 16.6667C6.66667 17.1269 7.03976 17.5 7.5 17.5H15.4167C16.5673 17.5 17.5 16.5673 17.5 15.4167V9.584" stroke="white" stroke-linecap="round" stroke-linejoin="round"/>
</svg>
