<svg width="20" height="20" viewBox="0 0 20 20" fill="none" xmlns="http://www.w3.org/2000/svg">
<path d="M4.16602 16.6668L7.49935 13.3335" stroke="white" stroke-linecap="round" stroke-linejoin="round"/>
<path d="M15.6568 8.51009L11.3215 12.8454C11.0089 13.1579 10.585 13.3335 10.143 13.3335H7.5V10.6906C7.5 10.2485 7.67559 9.82462 7.98815 9.51206L12.3235 5.17676" stroke="white" stroke-linecap="round" stroke-linejoin="round"/>
<path d="M9.16602 8.3335L12.4993 11.6668" stroke="white" stroke-linecap="round" stroke-linejoin="round"/>
<path fill-rule="evenodd" clip-rule="evenodd" d="M12.1718 3.00548C12.7295 2.44774 13.6338 2.44774 14.1915 3.00548L17.8271 6.64103C18.3848 7.19877 18.3848 8.10305 17.8271 8.66078V8.66078C17.2693 9.21852 16.3651 9.21852 15.8073 8.66078L12.1718 5.02523C11.614 4.46749 11.614 3.56322 12.1718 3.00548V3.00548Z" stroke="white" stroke-linecap="round" stroke-linejoin="round"/>
<path d="M8.33295 5.83344L7.67616 5.17665" stroke="white" stroke-linecap="round" stroke-linejoin="round"/>
<path d="M4.34375 8.50977L5.41721 9.58322" stroke="white" stroke-linecap="round" stroke-linejoin="round"/>
<path fill-rule="evenodd" clip-rule="evenodd" d="M7.82802 3.00575C8.38575 3.56349 8.38575 4.46776 7.82802 5.0255L4.19246 8.66105C3.63472 9.21879 2.73045 9.21879 2.17271 8.66105V8.66105C1.61497 8.10332 1.61497 7.19904 2.17271 6.6413L5.80826 3.00575C6.366 2.44801 7.27028 2.44801 7.82802 3.00575V3.00575Z" stroke="white" stroke-linecap="round" stroke-linejoin="round"/>
<path d="M15.834 16.6665L13.334 14.1665" stroke="white" stroke-linecap="round" stroke-linejoin="round"/>
</svg>
