<svg width="20" height="20" viewBox="0 0 20 20" fill="none" xmlns="http://www.w3.org/2000/svg">
<path d="M1.66406 10.8333H18.3307M17.4974 10.8333L17.0436 13.7377C16.7802 15.4237 15.328 16.6667 13.6215 16.6667H6.37329C4.6668 16.6667 3.21458 15.4237 2.95116 13.7377L2.4974 10.8333M5.10675 16.4227L4.16406 17.5M14.888 16.4227L15.8307 17.5M9.16406 5C9.16406 3.61929 8.04477 2.5 6.66406 2.5C5.28335 2.5 4.16406 3.61929 4.16406 5V10.8333M9.07089 5H9.25724C10.1405 5 10.9247 5.5652 11.204 6.40314C11.2887 6.65727 11.2461 6.93662 11.0895 7.15393C10.9328 7.37123 10.6813 7.5 10.4134 7.5H7.9147C7.64683 7.5 7.39529 7.37123 7.23866 7.15393C7.08204 6.93662 7.03942 6.65727 7.12413 6.40314C7.40345 5.5652 8.18762 5 9.07089 5Z" stroke="#011F3A" stroke-linecap="round" stroke-linejoin="round"/>
</svg>
