<svg width="20" height="20" viewBox="0 0 20 20" fill="none" xmlns="http://www.w3.org/2000/svg">
<path d="M10 7.465V6.80583C10 6.125 10.4208 5.75583 10.8425 5.4725C11.2542 5.195 11.6667 4.83333 11.6667 4.16667C11.6667 3.24583 10.9208 2.5 10 2.5C9.07917 2.5 8.33333 3.24583 8.33333 4.16667M15 12.8483H15.5633C16.6333 12.8483 17.5 11.9808 17.5 10.9108C17.5 10.0767 16.9667 9.33667 16.175 9.07333L12.635 7.89333C10.9242 7.32333 9.075 7.32333 7.36417 7.89333L3.82417 9.07333C3.03333 9.33667 2.5 10.0767 2.5 10.9192V10.96C2.5 12.0042 3.34667 12.8508 4.39083 12.8508H5M13.2925 17.5H6.7075C5.765 17.5 5 16.735 5 15.7925V12.5208C5 12.0492 5.3825 11.6667 5.85417 11.6667H14.1467C14.6175 11.6667 15 12.0492 15 12.5208V15.7925C15 16.735 14.235 17.5 13.2925 17.5Z" stroke="#011F3A" stroke-linecap="round" stroke-linejoin="round"/>
</svg>
