<svg width="20" height="20" viewBox="0 0 20 20" fill="none" xmlns="http://www.w3.org/2000/svg">
<path d="M15.8307 5V4.16667C15.8307 3.24583 15.0849 2.5 14.1641 2.5M14.1641 2.5C13.2432 2.5 12.4974 3.24583 12.4974 4.16667V15.8333C12.4974 16.7542 11.7516 17.5 10.8307 17.5H5.83073C4.9099 17.5 4.16406 16.7542 4.16406 15.8333V5M14.1641 2.5H6.66406C5.28323 2.5 4.16406 3.61917 4.16406 5M4.16406 5H2.91406C2.22406 5 1.66406 5.56 1.66406 6.25C1.66406 6.94 2.22406 7.5 2.91406 7.5H4.16406M15.8307 7.5V12.5C15.8307 13.4208 15.0849 14.1667 14.1641 14.1667H12.4974M12.4974 7.5H17.0807C17.7707 7.5 18.3307 6.94 18.3307 6.25C18.3307 5.56 17.7707 5 17.0807 5H12.4974" stroke="#011F3A" stroke-linecap="round" stroke-linejoin="round"/>
</svg>
