<svg width="20" height="20" viewBox="0 0 20 20" fill="none" xmlns="http://www.w3.org/2000/svg">
<path d="M4.16181 8.65218H7.49653M4.16181 8.65218C3.70138 8.65218 3.32812 9.02543 3.32812 9.48586V15.836C3.32812 16.7569 4.07463 17.5034 4.99549 17.5034H6.66285C7.58371 17.5034 8.33021 16.7569 8.33021 15.836V9.48586C8.33021 9.02543 7.95696 8.65218 7.49653 8.65218M4.16181 8.65218L4.16181 4.16448C4.16197 3.84879 4.34044 3.56028 4.62283 3.41917L6.29019 2.58548C6.54855 2.45638 6.85533 2.4702 7.10103 2.622C7.34674 2.77381 7.49637 3.04197 7.49653 3.33079L7.49653 8.65218M8.33021 12.5013H3.32812M13.3323 10.0002H14.9997C15.9205 10.0002 16.667 10.7467 16.667 11.6676V16.6697C16.667 17.1301 16.2938 17.5034 15.8333 17.5034H12.4986C12.0382 17.5034 11.6649 17.1301 11.6649 16.6697V11.6676C11.6649 10.7467 12.4114 10.0002 13.3323 10.0002Z" stroke="#011F3A" stroke-linecap="round" stroke-linejoin="round"/>
</svg>
