<svg width="16" height="17" viewBox="0 0 16 17" fill="none" xmlns="http://www.w3.org/2000/svg">
<path fill-rule="evenodd" clip-rule="evenodd" d="M8.0025 2.99768C4.96355 2.99768 2.5 5.46123 2.5 8.50018C2.5 11.5391 4.96355 14.0027 8.0025 14.0027C11.0414 14.0027 13.505 11.5391 13.505 8.50018C13.505 5.46123 11.0414 2.99768 8.0025 2.99768ZM1.5 8.50018C1.5 4.90895 4.41127 1.99768 8.0025 1.99768C11.5937 1.99768 14.505 4.90895 14.505 8.50018C14.505 12.0914 11.5937 15.0027 8.0025 15.0027C4.41127 15.0027 1.5 12.0914 1.5 8.50018ZM7.60083 4.66546C7.87697 4.66546 8.10083 4.88932 8.10083 5.16546L8.10083 8.40185H10.7021C10.9783 8.40185 11.2021 8.62571 11.2021 8.90185C11.2021 9.17799 10.9783 9.40185 10.7021 9.40185H7.60083C7.32469 9.40185 7.10083 9.17799 7.10083 8.90185L7.10083 5.16546C7.10083 4.88932 7.32469 4.66546 7.60083 4.66546Z" fill="#011F3A"/>
</svg>
