<svg width="24" height="24" viewBox="0 0 24 24" fill="none" xmlns="http://www.w3.org/2000/svg">
<path fill-rule="evenodd" clip-rule="evenodd" d="M9.49844 12.1484C9.96788 12.1484 10.3484 12.529 10.3484 12.9984V20.9984C10.3484 21.4679 9.96788 21.8484 9.49844 21.8484C9.029 21.8484 8.64844 21.4679 8.64844 20.9984V12.9984C8.64844 12.529 9.029 12.1484 9.49844 12.1484Z" fill="#99A5B0"/>
<path fill-rule="evenodd" clip-rule="evenodd" d="M19.4984 7.15146C19.9679 7.15146 20.3484 7.53202 20.3484 8.00146V21.0015C20.3484 21.4709 19.9679 21.8515 19.4984 21.8515C19.029 21.8515 18.6484 21.4709 18.6484 21.0015V8.00146C18.6484 7.53202 19.029 7.15146 19.4984 7.15146Z" fill="#99A5B0"/>
<path fill-rule="evenodd" clip-rule="evenodd" d="M14.4984 2.1499C14.9679 2.1499 15.3484 2.53046 15.3484 2.9999V20.9999C15.3484 21.4693 14.9679 21.8499 14.4984 21.8499C14.029 21.8499 13.6484 21.4693 13.6484 20.9999V2.9999C13.6484 2.53046 14.029 2.1499 14.4984 2.1499Z" fill="#99A5B0"/>
<path fill-rule="evenodd" clip-rule="evenodd" d="M4.49844 7.15146C4.96788 7.15146 5.34844 7.53202 5.34844 8.00146V21.0015C5.34844 21.4709 4.96788 21.8515 4.49844 21.8515C4.029 21.8515 3.64844 21.4709 3.64844 21.0015V8.00146C3.64844 7.53202 4.029 7.15146 4.49844 7.15146Z" fill="#99A5B0"/>
</svg>
