<svg width="24" height="24" viewBox="0 0 24 24" fill="none" xmlns="http://www.w3.org/2000/svg">
<path d="M6.57672 5.17564C6.18922 4.78813 5.56095 4.78813 5.17344 5.17564C4.78594 5.56314 4.78594 6.19141 5.17344 6.57892L10.5946 12.0001L5.17344 17.4212C4.78594 17.8087 4.78594 18.437 5.17344 18.8245C5.56095 19.212 6.18922 19.212 6.57672 18.8245L11.9979 13.4033L17.419 18.8245C17.8065 19.212 18.4348 19.212 18.8223 18.8245C19.2098 18.437 19.2098 17.8087 18.8223 17.4212L13.4011 12.0001L18.8223 6.57892C19.2098 6.19141 19.2098 5.56314 18.8223 5.17564C18.4348 4.78813 17.8065 4.78813 17.419 5.17564L11.9979 10.5968L6.57672 5.17564Z" fill="white"/>
</svg>
