<svg width="30" height="38" viewBox="0 0 30 38" fill="none" xmlns="http://www.w3.org/2000/svg">
<path fill-rule="evenodd" clip-rule="evenodd" d="M27.828 7.828L22.172 2.172C21.422 1.422 20.404 1 19.344 1H5C2.79 1 1 2.79 1 5V33C1 35.21 2.79 37 5 37H25C27.21 37 29 35.21 29 33V10.656C29 9.596 28.578 8.578 27.828 7.828V7.828Z" stroke="#222222" stroke-width="1.5" stroke-linecap="round" stroke-linejoin="round"/>
<path d="M11.6797 24.1001H18.3197" stroke="#222222" stroke-width="1.5" stroke-linecap="round" stroke-linejoin="round"/>
<path fill-rule="evenodd" clip-rule="evenodd" d="M12.666 16.502V14.166C12.666 13.522 13.188 13 13.832 13H16.168C16.812 13 17.334 13.522 17.334 14.166V16.502C17.334 17.146 16.812 17.668 16.168 17.668H13.832C13.188 17.666 12.666 17.144 12.666 16.502Z" stroke="#222222" stroke-width="1.5" stroke-linecap="round" stroke-linejoin="round"/>
<path fill-rule="evenodd" clip-rule="evenodd" d="M7 25.834V23.498C7 22.854 7.522 22.332 8.166 22.332H10.502C11.146 22.332 11.668 22.854 11.668 23.498V25.834C11.668 26.478 11.146 27 10.502 27H8.166C7.522 27 7 26.478 7 25.834Z" stroke="#222222" stroke-width="1.5" stroke-linecap="round" stroke-linejoin="round"/>
<path fill-rule="evenodd" clip-rule="evenodd" d="M18.334 25.834V23.498C18.334 22.854 18.856 22.332 19.5 22.332H21.836C22.48 22.332 23.002 22.854 23.002 23.498V25.834C23 26.478 22.478 27 21.834 27H19.498C18.856 27 18.334 26.478 18.334 25.834H18.334Z" stroke="#222222" stroke-width="1.5" stroke-linecap="round" stroke-linejoin="round"/>
<path d="M19.48 22.3401L16.46 17.6201" stroke="#222222" stroke-width="1.5" stroke-linecap="round" stroke-linejoin="round"/>
<path d="M10.5195 22.3401L13.5395 17.6201" stroke="#222222" stroke-width="1.5" stroke-linecap="round" stroke-linejoin="round"/>
</svg>
