<svg width="24" height="24" viewBox="0 0 24 24" fill="none" xmlns="http://www.w3.org/2000/svg">
<path fill-rule="evenodd" clip-rule="evenodd" d="M8.30244 4.85137C5.72036 4.85137 3.84844 7.31698 3.84844 9.75637C3.84844 12.305 5.44802 14.6546 7.40222 16.4242C8.36623 17.2971 9.38104 17.9952 10.2501 18.4707C10.6847 18.7085 11.0724 18.8849 11.3901 18.9997C11.7248 19.1206 11.9227 19.1514 11.9984 19.1514C12.0741 19.1514 12.272 19.1206 12.6068 18.9997C12.9244 18.8849 13.3122 18.7085 13.7468 18.4707C14.6158 17.9952 15.6306 17.2971 16.5947 16.4242C18.5489 14.6546 20.1484 12.305 20.1484 9.75637C20.1484 7.31698 18.2765 4.85137 15.6944 4.85137C14.1975 4.85137 13.2235 5.58739 12.6445 6.26468C12.483 6.45359 12.247 6.56237 11.9984 6.56237C11.7499 6.56237 11.5138 6.45359 11.3523 6.26468C10.7734 5.58739 9.79933 4.85137 8.30244 4.85137ZM2.14844 9.75637C2.14844 6.64575 4.53451 3.15137 8.30244 3.15137C9.94725 3.15137 11.1621 3.78993 11.9984 4.51082C12.8348 3.78993 14.0496 3.15137 15.6944 3.15137C19.4624 3.15137 21.8484 6.64575 21.8484 9.75637C21.8484 13.0087 19.837 15.7816 17.7357 17.6843C16.672 18.6475 15.5479 19.423 14.5628 19.962C14.0703 20.2315 13.6021 20.4476 13.1845 20.5985C12.784 20.7432 12.3672 20.8514 11.9984 20.8514C11.6296 20.8514 11.2129 20.7432 10.8124 20.5985C10.3948 20.4476 9.92657 20.2315 9.43409 19.962C8.44896 19.423 7.32489 18.6475 6.26116 17.6843C4.15986 15.7816 2.14844 13.0087 2.14844 9.75637Z" fill="#011F3A"/>
</svg>
