<svg width="24" height="24" viewBox="0 0 24 24" fill="none" xmlns="http://www.w3.org/2000/svg">
<path fill-rule="evenodd" clip-rule="evenodd" d="M8.09827 6.43683C8.09827 5.93977 8.50122 5.53683 8.99827 5.53683H20.0029C20.4999 5.53683 20.9029 5.93977 20.9029 6.43683C20.9029 6.93389 20.4999 7.33683 20.0029 7.33683H8.99827C8.50122 7.33683 8.09827 6.93389 8.09827 6.43683Z" fill="white"/>
<path fill-rule="evenodd" clip-rule="evenodd" d="M8.09827 12.0001C8.09827 11.5031 8.50122 11.1001 8.99827 11.1001H20.0029C20.4999 11.1001 20.9029 11.5031 20.9029 12.0001C20.9029 12.4972 20.4999 12.9001 20.0029 12.9001H8.99827C8.50122 12.9001 8.09827 12.4972 8.09827 12.0001Z" fill="white"/>
<path fill-rule="evenodd" clip-rule="evenodd" d="M8.09827 17.5635C8.09827 17.0664 8.50122 16.6635 8.99827 16.6635H20.0029C20.4999 16.6635 20.9029 17.0664 20.9029 17.5635C20.9029 18.0605 20.4999 18.4635 20.0029 18.4635H8.99827C8.50122 18.4635 8.09827 18.0605 8.09827 17.5635Z" fill="white"/>
<path fill-rule="evenodd" clip-rule="evenodd" d="M3.09619 6.43683C3.09619 5.66352 3.72309 5.03662 4.4964 5.03662C5.26971 5.03662 5.89661 5.66352 5.89661 6.43683C5.89661 7.21014 5.26971 7.83704 4.4964 7.83704C3.72309 7.83704 3.09619 7.21014 3.09619 6.43683Z" fill="white"/>
<path fill-rule="evenodd" clip-rule="evenodd" d="M3.09619 12.0001C3.09619 11.2268 3.72309 10.5999 4.4964 10.5999C5.26971 10.5999 5.89661 11.2268 5.89661 12.0001C5.89661 12.7735 5.26971 13.4004 4.4964 13.4004C3.72309 13.4004 3.09619 12.7735 3.09619 12.0001Z" fill="white"/>
<path fill-rule="evenodd" clip-rule="evenodd" d="M3.09619 17.5635C3.09619 16.7902 3.72308 16.1633 4.4964 16.1633C5.26971 16.1633 5.89661 16.7902 5.89661 17.5635C5.89661 18.3368 5.26971 18.9637 4.4964 18.9637C3.72308 18.9637 3.09619 18.3368 3.09619 17.5635Z" fill="white"/>
</svg>
