<svg width="16" height="17" viewBox="0 0 16 17" fill="none" xmlns="http://www.w3.org/2000/svg">
<path fill-rule="evenodd" clip-rule="evenodd" d="M11.8948 2.94416C12.9329 2.55938 13.9439 3.57037 13.5592 4.60849L10.3394 13.2952C9.89651 14.4883 8.17829 14.3941 7.86847 13.1599L6.9638 9.54712L3.33854 8.63641C2.10498 8.3264 2.01123 6.60913 3.20393 6.16638L11.8948 2.94416ZM9.40181 12.9474L12.6215 4.26095C12.7091 4.02448 12.4788 3.79418 12.2424 3.88182L3.55193 7.10387C3.27982 7.20489 3.30182 7.59604 3.58219 7.66654L7.4979 8.65023C7.67673 8.69515 7.81631 8.83485 7.8611 9.01371L8.83837 12.9164C8.90901 13.1978 9.30083 13.219 9.40181 12.9474Z" fill="#011F3A"/>
</svg>
