<svg width="20" height="20" viewBox="0 0 20 20" fill="none" xmlns="http://www.w3.org/2000/svg">
<path fill-rule="evenodd" clip-rule="evenodd" d="M10.5056 2.72604L11.7139 2.13521C12.2714 1.86271 12.9456 2.08104 13.2364 2.63021L13.8673 3.81854C14.0339 4.13188 14.3356 4.35104 14.6856 4.41271L16.0106 4.64521C16.6223 4.75271 17.0381 5.32521 16.9514 5.94021L16.7631 7.27188C16.7131 7.62354 16.8289 7.97854 17.0756 8.23354L18.0106 9.20021C18.4423 9.64604 18.4423 10.3544 18.0106 10.801L17.0756 11.7677C16.8289 12.0227 16.7131 12.3777 16.7631 12.7294L16.9514 14.061C17.0381 14.676 16.6223 15.2485 16.0106 15.356L14.6856 15.5885C14.3356 15.6502 14.0339 15.8694 13.8673 16.1827L13.2364 17.371C12.9456 17.9194 12.2723 18.1385 11.7139 17.866L10.5056 17.2752C10.1864 17.1194 9.81393 17.1194 9.49477 17.2752L8.28643 17.866C7.72893 18.1385 7.05477 17.9202 6.76393 17.371L6.1331 16.1819C5.96643 15.8685 5.66477 15.6494 5.31477 15.5877L3.98977 15.3552C3.3781 15.2477 2.96227 14.6752 3.04893 14.0602L3.23727 12.7285C3.28727 12.3769 3.17143 12.0219 2.92477 11.7669L1.98977 10.8002C1.5581 10.3544 1.5581 9.64604 1.98977 9.19938L2.92477 8.23271C3.17143 7.97771 3.28727 7.62271 3.23727 7.27104L3.04977 5.93938C2.96227 5.32521 3.37893 4.75188 3.9906 4.64521L5.3156 4.41271C5.66477 4.35104 5.96643 4.13188 6.1331 3.81854L6.76393 2.63021C7.05477 2.08188 7.7281 1.86271 8.28643 2.13521L9.49477 2.72604C9.8131 2.88188 10.1864 2.88188 10.5056 2.72604Z" stroke="white" stroke-width="1.25" stroke-linecap="round" stroke-linejoin="round"/>
<path d="M7.5 12.5L12.5 7.5" stroke="white" stroke-width="1.25" stroke-linecap="round" stroke-linejoin="round"/>
<path d="M7.70685 7.49984C7.59185 7.49984 7.49852 7.59317 7.49935 7.70817C7.49935 7.82317 7.59269 7.9165 7.70769 7.9165C7.82269 7.9165 7.91602 7.82317 7.91602 7.70817C7.91602 7.59317 7.82269 7.49984 7.70685 7.49984" stroke="white" stroke-width="1.25" stroke-linecap="round" stroke-linejoin="round"/>
<path d="M12.2908 12.0833C12.1758 12.0833 12.0825 12.1767 12.0833 12.2917C12.0833 12.4067 12.1767 12.5 12.2917 12.5C12.4067 12.5 12.5 12.4067 12.5 12.2917C12.5 12.1767 12.4067 12.0833 12.2908 12.0833" stroke="white" stroke-width="1.25" stroke-linecap="round" stroke-linejoin="round"/>
</svg>
